<?xml version="1.0" encoding="utf-8"?>
<!-- Generator: Adobe Illustrator 17.1.0, SVG Export Plug-In . SVG Version: 6.00 Build 0)  -->
<!DOCTYPE svg PUBLIC "-//W3C//DTD SVG 1.1//EN" "http://www.w3.org/Graphics/SVG/1.1/DTD/svg11.dtd">
<svg version="1.1" id="Layer_1" xmlns="http://www.w3.org/2000/svg" xmlns:xlink="http://www.w3.org/1999/xlink" x="0px" y="0px"
	 viewBox="0 0 317.286 407.718" enable-background="new 0 0 317.286 407.718" xml:space="preserve">
<polygon points="22.077,74.864 32.103,12.667 159.197,323.86 112.796,316.38 "/>
<polygon points="311.025,76.865 300.999,14.668 173.905,325.861 220.306,318.381 "/>
<polygon points="6.231,143.697 13.146,100.803 100.797,315.418 68.796,310.259 "/>
<polygon points="230.301,316.419 280.564,307.75 315.058,264.367 255.058,264.367 245.391,277.654 285.391,277.654 262.558,305.367 
	"/>
<polygon points="70.798,308.258 173.377,399.216 280.564,307.75 282.736,305.017 168.626,321.858 "/>
<polygon fill="#FFFFFF" points="18.074,73.863 28.1,11.666 155.194,322.859 108.793,315.379 "/>
<polygon fill="#FFFFFF" points="307.022,75.865 296.996,13.667 169.902,324.861 216.303,317.381 "/>
<polygon fill="#FFFFFF" points="2.228,142.696 9.143,99.802 96.793,314.417 64.793,309.258 "/>
<polygon fill="#FFFFFF" points="226.298,315.418 276.56,306.749 311.054,263.366 251.054,263.366 241.388,276.653 281.388,276.653 
	258.554,304.366 "/>
<polygon fill="#FFFFFF" points="64.793,309.258 165.371,401.217 276.56,306.749 162.621,322.859 "/>
</svg>
